<?xml version="1.0" encoding="UTF-8"?><svg id="katman_2" xmlns="http://www.w3.org/2000/svg" viewBox="0 0 752.61 110.09"><g id="katman_1"><path d="M169.21,49.78c0-6.82-6.44-10.23-19.32-10.23-48.5.19-97,.39-145.51.59-2.67-.3-4.59-2.67-4.37-5.15.19-2.22,2.05-4.1,4.44-4.31,47.87-.22,95.74-.43,143.6-.65,21.91,0,32.86,6.82,32.86,20.46v8.57c0,12.59-10.08,18.88-30.24,18.88h-30.25l51.4,22.03c.93.41,1.6.99,2.01,1.75.4.76.61,1.55.61,2.36,0,1.4-.48,2.72-1.44,3.98-.96,1.25-2.17,1.88-3.63,1.88-.64,0-1.31-.18-2.01-.52l-65.65-30.25c-.99-.4-1.75-1.05-2.27-1.92-.52-.88-.79-1.8-.79-2.8,0-1.46.55-2.8,1.66-4.02,1.1-1.22,2.68-1.84,4.72-1.84h46.77c11.59,0,17.4-2.83,17.4-8.48v-10.31h0Z"/><path d="M270.35,66.65c0-5.83-5.19-8.74-15.56-8.74h-25.26c-11.25,0-16.87,3.27-16.87,9.79v2.36c0,3.61-1.87,5.42-5.59,5.42s-5.42-1.8-5.42-5.42v-2.36c0-12.59,9.85-18.88,29.55-18.88h21.94c18.99,0,28.49,6.26,28.49,18.8v2.45c0,3.61-1.89,5.42-5.68,5.42s-5.59-1.8-5.59-5.42v-3.41h0Z"/><path d="M281.62,91.04c0,12.3-9.5,18.44-28.49,18.44h-22.29c-19.46,0-29.19-6.15-29.19-18.44v-2.71c0-3.73,1.8-5.59,5.42-5.59s5.59,1.87,5.59,5.59v2.71c0,6.23,5.65,9.35,16.96,9.35h25.26c10.31,0,15.47-3.12,15.47-9.35v-2.71c0-3.73,1.87-5.59,5.59-5.59s5.68,1.87,5.68,5.59v2.71h0Z"/><path d="M385.29,92.26c0,11.48-10.2,17.22-30.59,17.22h-21.07c-19.46,0-29.19-5.83-29.19-17.48v-57.52c0-3.32,1.82-4.98,5.46-4.98s5.55,1.66,5.55,4.98v57.26c0,5.77,5.61,8.65,16.84,8.65h24.44c11.7,0,17.54-2.8,17.54-8.39v-25.09c0-6-4.84-9.01-14.51-9.01h-33.04c-2.68,0-4.02-1.51-4.02-4.55s1.34-4.55,4.02-4.55h31.21c18.24,0,27.36,6.06,27.36,18.18v25.26h0Z"/><path d="M476.73,66.65c0-5.83-5.19-8.74-15.56-8.74h-25.26c-11.25,0-16.87,3.27-16.87,9.79v2.36c0,3.61-1.87,5.42-5.59,5.42s-5.42-1.8-5.42-5.42v-2.36c0-12.59,9.85-18.88,29.55-18.88h21.94c18.99,0,28.5,6.26,28.5,18.8v2.45c0,3.61-1.89,5.42-5.68,5.42s-5.59-1.8-5.59-5.42v-3.41h0Z"/><path d="M488,91.04c0,12.3-9.5,18.44-28.5,18.44h-22.29c-19.46,0-29.19-6.15-29.19-18.44v-2.71c0-3.73,1.8-5.59,5.42-5.59s5.59,1.87,5.59,5.59v2.71c0,6.23,5.65,9.35,16.96,9.35h25.26c10.31,0,15.47-3.12,15.47-9.35v-2.71c0-3.73,1.87-5.59,5.59-5.59s5.68,1.87,5.68,5.59v2.71h0Z"/><path d="M521.83,57.91v47.2c0,3.32-1.81,4.98-5.42,4.98s-5.42-1.66-5.42-4.98V34.39c0-3.27,1.84-4.89,5.51-4.89s5.33,1.63,5.33,4.89v14.42h22.12c3.03,0,4.55,1.52,4.55,4.55s-1.52,4.55-4.55,4.55h-22.12,0Z"/><path d="M570,105.11c0,3.32-1.84,4.98-5.51,4.98s-5.33-1.66-5.33-4.98v-52.27c0-3.09,1.72-4.63,5.15-4.63,3.79,0,5.68,1.54,5.68,4.63v52.27Z"/><path d="M620.34,109.48c-19.93,0-29.89-5.97-29.89-17.92v-24.91c0-11.89,9.06-17.83,27.19-17.83h40.65c3.38,0,5.07,1.48,5.07,4.46s-1.69,4.63-5.07,4.63h-42.22c-9.73,0-14.6,2.8-14.6,8.39v24.73c0,6.23,5.59,9.35,16.78,9.35h40.04c3.15,0,4.72,1.58,4.72,4.72,0,2.91-1.58,4.37-4.72,4.37h-37.94,0Z"/><path d="M752.6,95.93c0,9.03-6.64,13.55-19.93,13.55h-49.13c-3.15,0-4.72-1.48-4.72-4.46s1.58-4.63,4.72-4.63h51.14c4.37,0,6.56-1.75,6.56-5.25v-7.17c0-3.27-2.62-4.89-7.87-4.89h-32.43c-14.8,0-22.2-4.28-22.2-12.85v-8.91c0-8.33,7.02-12.5,21.07-12.5h1.22c3.32,0,4.98,1.52,4.98,4.55s-1.66,4.55-4.98,4.55h-3.93c-5.01,0-7.51,1.46-7.51,4.37v6.99c0,3.15,3.15,4.72,9.44,4.72h32.96c13.76,0,20.63,4.4,20.63,13.2v8.74h0Z"/><path d="M13.23,78.68c-2.79,0-4.18-1.78-4.18-5.35,0-3.25,1.39-4.88,4.18-4.88h70.07c2.84,0,4.26,1.63,4.26,4.88,0,3.57-1.42,5.35-4.26,5.35H13.23Z"/><path d="M38.77,103.65c0,3.89-1.78,5.83-5.35,5.83-3.25,0-4.88-1.94-4.88-5.83V5.94c0-3.96,1.63-5.94,4.88-5.94,3.57,0,5.35,1.98,5.35,5.94v97.71Z"/><path d="M87.57,104.07c0,3.9-1.78,5.85-5.35,5.85-3.25,0-4.88-1.95-4.88-5.85V5.97C77.34,2,78.97,0,82.22,0c3.57,0,5.35,1.99,5.35,5.97v98.1Z"/><path d="M570,35.73c0,3.84-1.81,5.76-5.45,5.76s-5.39-1.92-5.39-5.76,1.8-5.51,5.39-5.51,5.45,1.84,5.45,5.51Z"/></g></svg>
